<?xml version="1.0" encoding="UTF-8" standalone="no"?>
<svg
   width="100"
   height="100"
   viewBox="0 0 100 100"
   fill="none"
   version="1.1"
   id="svg5"
   sodipodi:docname="empty.svg"
   inkscape:version="1.3.2 (091e20e, 2023-11-25, custom)"
   xmlns:inkscape="http://www.inkscape.org/namespaces/inkscape"
   xmlns:sodipodi="http://sodipodi.sourceforge.net/DTD/sodipodi-0.dtd"
   xmlns="http://www.w3.org/2000/svg"
   xmlns:svg="http://www.w3.org/2000/svg">
  <defs
     id="defs5" />
  <sodipodi:namedview
     id="namedview5"
     pagecolor="#ffffff"
     bordercolor="#000000"
     borderopacity="0.25"
     inkscape:showpageshadow="2"
     inkscape:pageopacity="0.0"
     inkscape:pagecheckerboard="0"
     inkscape:deskcolor="#d1d1d1"
     inkscape:zoom="8.14"
     inkscape:cx="50"
     inkscape:cy="50"
     inkscape:window-width="1920"
     inkscape:window-height="1010"
     inkscape:window-x="-6"
     inkscape:window-y="-6"
     inkscape:window-maximized="1"
     inkscape:current-layer="svg5"
     showguides="true">
    <sodipodi:guide
       position="-16.461916,50.12285"
       orientation="0,-1"
       id="guide6"
       inkscape:locked="false" />
  </sodipodi:namedview>
  <path
     style="color:#000000;fill:#000000;stroke-linecap:round;-inkscape-stroke:none"
     d="m 12,47 a 3,3 0 0 0 -3,3 3,3 0 0 0 3,3 h 4 4 a 3,3 0 0 0 3,-3 3,3 0 0 0 -3,-3 h -4 z"
     id="path1" />
  <path
     style="color:#000000;fill:#000000;stroke-linecap:round;-inkscape-stroke:none"
     d="m 81,47 a 3,3 0 0 0 -3,3 3,3 0 0 0 3,3 h 4 4 a 3,3 0 0 0 3,-3 3,3 0 0 0 -3,-3 h -4 z"
     id="path3" />
  <path
     style="color:#000000;fill:#000000;stroke-linecap:round;-inkscape-stroke:none"
     d="m 35,47 a 3,3 0 0 0 -3,3 3,3 0 0 0 3,3 h 4 4 a 3,3 0 0 0 3,-3 3,3 0 0 0 -3,-3 h -4 z"
     id="path4" />
  <path
     style="color:#000000;fill:#000000;stroke-linecap:round;-inkscape-stroke:none"
     d="m 58,47 a 3,3 0 0 0 -3,3 3,3 0 0 0 3,3 h 4 4 a 3,3 0 0 0 3,-3 3,3 0 0 0 -3,-3 h -4 z"
     id="path5" />
</svg>
