<?xml version="1.0" encoding="UTF-8" standalone="no"?>
<svg
   id="low-pass"
   width="100"
   height="100"
   viewBox="0 0 100 100"
   fill="none"
   version="1.1"
   sodipodi:docname="low-pass.svg"
   inkscape:version="1.3.2 (091e20e, 2023-11-25, custom)"
   xmlns:inkscape="http://www.inkscape.org/namespaces/inkscape"
   xmlns:sodipodi="http://sodipodi.sourceforge.net/DTD/sodipodi-0.dtd"
   xmlns="http://www.w3.org/2000/svg"
   xmlns:svg="http://www.w3.org/2000/svg">
  <defs
     id="defs2" />
  <sodipodi:namedview
     id="namedview2"
     pagecolor="#ffffff"
     bordercolor="#000000"
     borderopacity="0.25"
     inkscape:showpageshadow="2"
     inkscape:pageopacity="0.0"
     inkscape:pagecheckerboard="0"
     inkscape:deskcolor="#d1d1d1"
     inkscape:zoom="8.14"
     inkscape:cx="50"
     inkscape:cy="50"
     inkscape:window-width="1920"
     inkscape:window-height="1010"
     inkscape:window-x="-6"
     inkscape:window-y="-6"
     inkscape:window-maximized="1"
     inkscape:current-layer="low-pass" />
  <path
     style="color:#000000;fill:#000000;stroke-linecap:round;stroke-linejoin:round;-inkscape-stroke:none"
     d="m 69.888672,27 c -7.19027,0 -13.778506,4.072636 -16.994141,10.503906 L 41.738281,59.814453 C 39.533322,64.224372 35.041646,67 30.111328,67 H 12 a 3,3 0 0 0 -3,3 3,3 0 0 0 3,3 h 18.111328 c 7.19027,0 13.778506,-4.072636 16.994141,-10.503906 L 58.261719,40.185547 C 60.466678,35.775628 64.958354,33 69.888672,33 H 88 a 3,3 0 0 0 3,-3 3,3 0 0 0 -3,-3 z"
     id="path1" />
  <path
     style="color:#000000;fill:#000000;stroke-linecap:round;-inkscape-stroke:none"
     d="m 12,27 a 3,3 0 0 0 -3,3 3,3 0 0 0 3,3 h 30 a 3,3 0 0 0 3,-3 3,3 0 0 0 -3,-3 z"
     id="path2" />
</svg>
