<?xml version="1.0" encoding="UTF-8" standalone="no"?>
<svg
   id="low-shelf"
   width="100"
   height="100"
   viewBox="0 0 100 100"
   fill="none"
   version="1.1"
   sodipodi:docname="low-shelf.svg"
   inkscape:version="1.3.2 (091e20e, 2023-11-25, custom)"
   xmlns:inkscape="http://www.inkscape.org/namespaces/inkscape"
   xmlns:sodipodi="http://sodipodi.sourceforge.net/DTD/sodipodi-0.dtd"
   xmlns="http://www.w3.org/2000/svg"
   xmlns:svg="http://www.w3.org/2000/svg">
  <defs
     id="defs2" />
  <sodipodi:namedview
     id="namedview2"
     pagecolor="#ffffff"
     bordercolor="#000000"
     borderopacity="0.25"
     inkscape:showpageshadow="2"
     inkscape:pageopacity="0.0"
     inkscape:pagecheckerboard="0"
     inkscape:deskcolor="#d1d1d1"
     inkscape:zoom="8.14"
     inkscape:cx="50"
     inkscape:cy="50"
     inkscape:window-width="1920"
     inkscape:window-height="1010"
     inkscape:window-x="-6"
     inkscape:window-y="-6"
     inkscape:window-maximized="1"
     inkscape:current-layer="low-shelf" />
  <path
     style="color:#000000;fill:#000000;stroke-linecap:round;stroke-linejoin:round;-inkscape-stroke:none"
     d="M 88,27 C 65.320849,27 45.298008,41.896508 38.78125,63.619141 l -1.654297,5.519531 a 3,3 0 0 0 2.011719,3.734375 3,3 0 0 0 3.734375,-2.011719 l 1.65625,-5.517578 C 50.292127,46.134224 67.944594,33 88,33 a 3,3 0 0 0 3,-3 3,3 0 0 0 -3,-3 z"
     id="path1" />
  <path
     style="color:#000000;fill:#000000;stroke-linecap:round;-inkscape-stroke:none"
     d="m 12,27 a 3,3 0 0 0 -3,3 3,3 0 0 0 3,3 h 30 a 3,3 0 0 0 3,-3 3,3 0 0 0 -3,-3 z"
     id="path2" />
</svg>
